<svg width="123" height="8" viewBox="0 0 123 8" fill="none" xmlns="http://www.w3.org/2000/svg">
<path d="M7.3361 7.87537L6.81017 6.19585H4.09189L3.56596 7.87537H2L4.66509 0.10089H6.2547L8.90797 7.87537H7.3361ZM5.43921 1.91691L4.476 4.97329H6.43197L5.47467 1.91691H5.43921Z" fill="#5506FF"/>
<path d="M17.103 0.10089V7.87537H15.5548L12.4287 2.55786L12.3933 2.5638V7.87537H10.8391V0.10089H12.3933L15.5193 5.40653L15.5548 5.40059V0.10089H17.103Z" fill="#5506FF"/>
<path d="M26.0308 0.10089V7.87537H24.4825L21.3565 2.55786L21.321 2.5638V7.87537H19.7669V0.10089H21.321L24.4471 5.40653L24.4825 5.40059V0.10089H26.0308Z" fill="#5506FF"/>
<path d="M33.3748 7.87537L32.8489 6.19585H30.1306L29.6047 7.87537H28.0387L30.7038 0.10089H32.2934L34.9467 7.87537H33.3748ZM31.4779 1.91691L30.5147 4.97329H32.4707L31.5134 1.91691H31.4779Z" fill="#5506FF"/>
<path d="M44.0388 6.81899H44.0506C44.4682 6.81899 44.7892 6.73393 45.0138 6.5638C45.2423 6.38971 45.3565 6.1543 45.3565 5.85757C45.3565 5.55687 45.2521 5.31751 45.0433 5.13947C44.8385 4.95747 44.4682 4.78536 43.9324 4.62315C42.9593 4.34224 42.2482 4.0178 41.7991 3.64985C41.354 3.27794 41.1314 2.77943 41.1314 2.1543C41.1314 1.52522 41.4012 1.0089 41.941 0.605341C42.4807 0.20178 43.1721 0 44.0151 0C44.8621 0 45.5535 0.225519 46.0893 0.676558C46.6251 1.12364 46.8831 1.68546 46.8634 2.36202L46.8575 2.39169H45.3506C45.3506 2.02374 45.2285 1.73096 44.9842 1.51335C44.7439 1.29575 44.415 1.18694 43.9974 1.18694C43.5798 1.18694 43.2548 1.27794 43.0224 1.45994C42.7939 1.63798 42.6796 1.86746 42.6796 2.14837C42.6796 2.42532 42.7958 2.64886 43.0283 2.81899C43.2646 2.98516 43.6901 3.16518 44.3047 3.35905C45.1832 3.60435 45.8352 3.92483 46.2607 4.32047C46.6901 4.71217 46.9048 5.23046 46.9048 5.87537C46.9048 6.52028 46.6448 7.0366 46.1247 7.42433C45.6087 7.80811 44.9153 8 44.0447 8C43.4734 8 42.9514 7.90504 42.4787 7.71513C42.006 7.52127 41.6258 7.23244 41.3382 6.84866C41.0506 6.46489 40.9108 6.01978 40.9186 5.51335L40.9305 5.47774H42.4373C42.4373 6.37191 42.9711 6.81899 44.0388 6.81899Z" fill="#5506FF"/>
<path d="M53.8588 0.11276H55.413V5.27003C55.413 6.13254 55.1313 6.80317 54.5679 7.2819C54.0046 7.76063 53.2482 8 52.2988 8C51.3533 8 50.6008 7.76261 50.0414 7.28783C49.482 6.8091 49.2023 6.1365 49.2023 5.27003V0.11276H50.7624V5.27003C50.7624 5.77646 50.8943 6.15826 51.1583 6.41543C51.4262 6.6726 51.8083 6.80119 52.3047 6.80119C52.8011 6.80119 53.1832 6.67458 53.4511 6.42137C53.7229 6.16419 53.8588 5.78042 53.8588 5.27003V0.11276Z" fill="#5506FF"/>
<path d="M59.5306 1.2997V3.85163H61.0611C61.4866 3.85163 61.8135 3.73689 62.042 3.50742C62.2705 3.27794 62.3848 2.97132 62.3848 2.58754C62.3848 2.1998 62.2705 1.88922 62.042 1.65579C61.8135 1.4184 61.4866 1.2997 61.0611 1.2997H59.5306ZM61.0611 5.05638H59.5306V7.87537H57.9764V0.10089H61.0611C61.9475 0.10089 62.6467 0.326409 63.1589 0.777448C63.675 1.22453 63.933 1.82591 63.933 2.5816C63.933 3.33333 63.6769 3.93472 63.1648 4.38576C62.6527 4.83284 61.9514 5.05638 61.0611 5.05638Z" fill="#5506FF"/>
<path d="M67.8438 7.88131H66.2896V0.106825H69.2147C70.1011 0.106825 70.7925 0.308605 71.2889 0.712166C71.7853 1.11573 72.0335 1.67953 72.0335 2.40356C72.0335 3.1909 71.6218 3.76657 70.7984 4.13056C71.6572 4.38773 72.0866 5.00495 72.0866 5.9822V6.55786C72.0866 6.80712 72.1182 7.04451 72.1812 7.27003C72.2442 7.49159 72.3407 7.65579 72.4708 7.76261V7.87537H70.8693C70.6448 7.69337 70.5325 7.25025 70.5325 6.54599V5.99407C70.5325 5.60633 70.4261 5.30564 70.2134 5.09199C70.0046 4.87438 69.7072 4.76558 69.3211 4.76558L67.8438 4.77151V7.88131ZM67.8438 1.2997V3.56677H69.1852C70.0519 3.56677 70.4852 3.19881 70.4852 2.46291C70.4852 2.09891 70.3769 1.81405 70.1602 1.60831C69.9435 1.40257 69.6284 1.2997 69.2147 1.2997H67.8438Z" fill="#5506FF"/>
<path d="M79.3894 4.7003V3.28783C79.3894 2.67062 79.2377 2.17211 78.9343 1.79228C78.631 1.40851 78.2174 1.21662 77.6934 1.21662C77.1694 1.21662 76.7597 1.40653 76.4643 1.78635C76.1727 2.16222 76.027 2.66271 76.027 3.28783V4.7003C76.027 5.32938 76.1747 5.83581 76.4702 6.21958C76.7696 6.59941 77.1793 6.78932 77.6993 6.78932C78.2233 6.78932 78.6349 6.59941 78.9343 6.21958C79.2377 5.83581 79.3894 5.32938 79.3894 4.7003ZM80.9376 3.2997V4.7003C80.9376 5.66568 80.6362 6.45697 80.0335 7.07418C79.4347 7.69139 78.6546 8 77.6934 8C77.0631 8 76.5037 7.85955 76.0152 7.57864C75.5267 7.29377 75.1485 6.90208 74.8806 6.40356C74.6127 5.90109 74.4787 5.33333 74.4787 4.7003V3.2997C74.4787 2.33828 74.7762 1.54896 75.371 0.931751C75.9659 0.310584 76.74 0 77.6934 0C78.6507 0 79.4307 0.310584 80.0335 0.931751C80.6362 1.54896 80.9376 2.33828 80.9376 3.2997Z" fill="#5506FF"/>
<path d="M89.629 0.10089V7.87537H88.0808L84.9547 2.55786L84.9193 2.5638V7.87537H83.3651V0.10089H84.9193L88.0453 5.40653L88.0808 5.40059V0.10089H89.629Z" fill="#5506FF"/>
<path d="M97.0558 3.25223V4.45697H93.8471V6.67656H97.5995V7.87537H92.2929V0.10089H97.5876V1.2997H93.8471V3.25223H97.0558Z" fill="#5506FF"/>
<path d="M106.019 0.10089V7.87537H104.471L101.345 2.55786L101.309 2.5638V7.87537H99.7552V0.10089H101.309L104.435 5.40653L104.471 5.40059V0.10089H106.019Z" fill="#5506FF"/>
<path d="M110.237 4.62908V7.87537H108.683V0.10089H110.237V3.27596H110.917L112.967 0.10089H114.864L112.258 3.72107L115.071 7.87537H113.18L111.1 4.62908H110.237Z" fill="#5506FF"/>
<path d="M121.452 4.7003V3.28783C121.452 2.67062 121.3 2.17211 120.997 1.79228C120.693 1.40851 120.28 1.21662 119.756 1.21662C119.232 1.21662 118.822 1.40653 118.527 1.78635C118.235 2.16222 118.089 2.66271 118.089 3.28783V4.7003C118.089 5.32938 118.237 5.83581 118.533 6.21958C118.832 6.59941 119.242 6.78932 119.762 6.78932C120.286 6.78932 120.697 6.59941 120.997 6.21958C121.3 5.83581 121.452 5.32938 121.452 4.7003ZM123 3.2997V4.7003C123 5.66568 122.699 6.45697 122.096 7.07418C121.497 7.69139 120.717 8 119.756 8C119.125 8 118.566 7.85955 118.078 7.57864C117.589 7.29377 117.211 6.90208 116.943 6.40356C116.675 5.90109 116.541 5.33333 116.541 4.7003V3.2997C116.541 2.33828 116.839 1.54896 117.433 0.931751C118.028 0.310584 118.802 0 119.756 0C120.713 0 121.493 0.310584 122.096 0.931751C122.699 1.54896 123 2.33828 123 3.2997Z" fill="#5506FF"/>
<path d="M5.3361 7.87537L4.81017 6.19585H2.09189L1.56596 7.87537H0L2.66509 0.10089H4.2547L6.90797 7.87537H5.3361ZM3.43921 1.91691L2.476 4.97329H4.43197L3.47467 1.91691H3.43921Z" fill="#EE4E4E"/>
<path d="M15.103 0.10089V7.87537H13.5548L10.4287 2.55786L10.3933 2.5638V7.87537H8.83913V0.10089H10.3933L13.5193 5.40653L13.5548 5.40059V0.10089H15.103Z" fill="#EE4E4E"/>
<path d="M24.0308 0.10089V7.87537H22.4825L19.3565 2.55786L19.321 2.5638V7.87537H17.7669V0.10089H19.321L22.4471 5.40653L22.4825 5.40059V0.10089H24.0308Z" fill="#EE4E4E"/>
<path d="M31.3748 7.87537L30.8489 6.19585H28.1306L27.6047 7.87537H26.0387L28.7038 0.10089H30.2934L32.9467 7.87537H31.3748ZM29.4779 1.91691L28.5147 4.97329H30.4707L29.5134 1.91691H29.4779Z" fill="#EE4E4E"/>
<path d="M42.0388 6.81899H42.0506C42.4682 6.81899 42.7892 6.73393 43.0138 6.5638C43.2423 6.38971 43.3565 6.1543 43.3565 5.85757C43.3565 5.55687 43.2521 5.31751 43.0433 5.13947C42.8385 4.95747 42.4682 4.78536 41.9324 4.62315C40.9593 4.34224 40.2482 4.0178 39.7991 3.64985C39.354 3.27794 39.1314 2.77943 39.1314 2.1543C39.1314 1.52522 39.4012 1.0089 39.941 0.605341C40.4807 0.20178 41.1721 0 42.0151 0C42.8621 0 43.5535 0.225519 44.0893 0.676558C44.6251 1.12364 44.8831 1.68546 44.8634 2.36202L44.8575 2.39169H43.3506C43.3506 2.02374 43.2285 1.73096 42.9842 1.51335C42.7439 1.29575 42.415 1.18694 41.9974 1.18694C41.5798 1.18694 41.2548 1.27794 41.0224 1.45994C40.7939 1.63798 40.6796 1.86746 40.6796 2.14837C40.6796 2.42532 40.7958 2.64886 41.0283 2.81899C41.2646 2.98516 41.6901 3.16518 42.3047 3.35905C43.1832 3.60435 43.8352 3.92483 44.2607 4.32047C44.6901 4.71217 44.9048 5.23046 44.9048 5.87537C44.9048 6.52028 44.6448 7.0366 44.1247 7.42433C43.6087 7.80811 42.9153 8 42.0447 8C41.4734 8 40.9514 7.90504 40.4787 7.71513C40.006 7.52127 39.6258 7.23244 39.3382 6.84866C39.0506 6.46489 38.9108 6.01978 38.9186 5.51335L38.9305 5.47774H40.4373C40.4373 6.37191 40.9711 6.81899 42.0388 6.81899Z" fill="#EE4E4E"/>
<path d="M51.8588 0.11276H53.413V5.27003C53.413 6.13254 53.1313 6.80317 52.5679 7.2819C52.0046 7.76063 51.2482 8 50.2988 8C49.3533 8 48.6008 7.76261 48.0414 7.28783C47.482 6.8091 47.2023 6.1365 47.2023 5.27003V0.11276H48.7624V5.27003C48.7624 5.77646 48.8943 6.15826 49.1583 6.41543C49.4262 6.6726 49.8083 6.80119 50.3047 6.80119C50.8011 6.80119 51.1832 6.67458 51.4511 6.42137C51.7229 6.16419 51.8588 5.78042 51.8588 5.27003V0.11276Z" fill="#EE4E4E"/>
<path d="M57.5306 1.2997V3.85163H59.0611C59.4866 3.85163 59.8135 3.73689 60.042 3.50742C60.2705 3.27794 60.3848 2.97132 60.3848 2.58754C60.3848 2.1998 60.2705 1.88922 60.042 1.65579C59.8135 1.4184 59.4866 1.2997 59.0611 1.2997H57.5306ZM59.0611 5.05638H57.5306V7.87537H55.9764V0.10089H59.0611C59.9475 0.10089 60.6467 0.326409 61.1589 0.777448C61.675 1.22453 61.933 1.82591 61.933 2.5816C61.933 3.33333 61.6769 3.93472 61.1648 4.38576C60.6527 4.83284 59.9514 5.05638 59.0611 5.05638Z" fill="#EE4E4E"/>
<path d="M65.8438 7.88131H64.2896V0.106825H67.2147C68.1011 0.106825 68.7925 0.308605 69.2889 0.712166C69.7853 1.11573 70.0335 1.67953 70.0335 2.40356C70.0335 3.1909 69.6218 3.76657 68.7984 4.13056C69.6572 4.38773 70.0866 5.00495 70.0866 5.9822V6.55786C70.0866 6.80712 70.1182 7.04451 70.1812 7.27003C70.2442 7.49159 70.3407 7.65579 70.4708 7.76261V7.87537H68.8693C68.6448 7.69337 68.5325 7.25025 68.5325 6.54599V5.99407C68.5325 5.60633 68.4261 5.30564 68.2134 5.09199C68.0046 4.87438 67.7072 4.76558 67.3211 4.76558L65.8438 4.77151V7.88131ZM65.8438 1.2997V3.56677H67.1852C68.0519 3.56677 68.4852 3.19881 68.4852 2.46291C68.4852 2.09891 68.3769 1.81405 68.1602 1.60831C67.9435 1.40257 67.6284 1.2997 67.2147 1.2997H65.8438Z" fill="#EE4E4E"/>
<path d="M77.3894 4.7003V3.28783C77.3894 2.67062 77.2377 2.17211 76.9343 1.79228C76.631 1.40851 76.2174 1.21662 75.6934 1.21662C75.1694 1.21662 74.7597 1.40653 74.4643 1.78635C74.1727 2.16222 74.027 2.66271 74.027 3.28783V4.7003C74.027 5.32938 74.1747 5.83581 74.4702 6.21958C74.7696 6.59941 75.1793 6.78932 75.6993 6.78932C76.2233 6.78932 76.6349 6.59941 76.9343 6.21958C77.2377 5.83581 77.3894 5.32938 77.3894 4.7003ZM78.9376 3.2997V4.7003C78.9376 5.66568 78.6362 6.45697 78.0335 7.07418C77.4347 7.69139 76.6546 8 75.6934 8C75.0631 8 74.5037 7.85955 74.0152 7.57864C73.5267 7.29377 73.1485 6.90208 72.8806 6.40356C72.6127 5.90109 72.4787 5.33333 72.4787 4.7003V3.2997C72.4787 2.33828 72.7762 1.54896 73.371 0.931751C73.9659 0.310584 74.74 0 75.6934 0C76.6507 0 77.4307 0.310584 78.0335 0.931751C78.6362 1.54896 78.9376 2.33828 78.9376 3.2997Z" fill="#EE4E4E"/>
<path d="M87.629 0.10089V7.87537H86.0808L82.9547 2.55786L82.9193 2.5638V7.87537H81.3651V0.10089H82.9193L86.0453 5.40653L86.0808 5.40059V0.10089H87.629Z" fill="#EE4E4E"/>
<path d="M95.0558 3.25223V4.45697H91.8471V6.67656H95.5995V7.87537H90.2929V0.10089H95.5876V1.2997H91.8471V3.25223H95.0558Z" fill="#EE4E4E"/>
<path d="M104.019 0.10089V7.87537H102.471L99.3448 2.55786L99.3093 2.5638V7.87537H97.7552V0.10089H99.3093L102.435 5.40653L102.471 5.40059V0.10089H104.019Z" fill="#EE4E4E"/>
<path d="M108.237 4.62908V7.87537H106.683V0.10089H108.237V3.27596H108.917L110.967 0.10089H112.864L110.258 3.72107L113.071 7.87537H111.18L109.1 4.62908H108.237Z" fill="#EE4E4E"/>
<path d="M119.452 4.7003V3.28783C119.452 2.67062 119.3 2.17211 118.997 1.79228C118.693 1.40851 118.28 1.21662 117.756 1.21662C117.232 1.21662 116.822 1.40653 116.527 1.78635C116.235 2.16222 116.089 2.66271 116.089 3.28783V4.7003C116.089 5.32938 116.237 5.83581 116.533 6.21958C116.832 6.59941 117.242 6.78932 117.762 6.78932C118.286 6.78932 118.697 6.59941 118.997 6.21958C119.3 5.83581 119.452 5.32938 119.452 4.7003ZM121 3.2997V4.7003C121 5.66568 120.699 6.45697 120.096 7.07418C119.497 7.69139 118.717 8 117.756 8C117.125 8 116.566 7.85955 116.078 7.57864C115.589 7.29377 115.211 6.90208 114.943 6.40356C114.675 5.90109 114.541 5.33333 114.541 4.7003V3.2997C114.541 2.33828 114.839 1.54896 115.433 0.931751C116.028 0.310584 116.802 0 117.756 0C118.713 0 119.493 0.310584 120.096 0.931751C120.699 1.54896 121 2.33828 121 3.2997Z" fill="#EE4E4E"/>
<path d="M6.3361 7.87537L5.81017 6.19585H3.09189L2.56596 7.87537H1L3.66509 0.10089H5.2547L7.90797 7.87537H6.3361ZM4.43921 1.91691L3.476 4.97329H5.43197L4.47467 1.91691H4.43921Z" fill="white"/>
<path d="M16.103 0.10089V7.87537H14.5548L11.4287 2.55786L11.3933 2.5638V7.87537H9.83913V0.10089H11.3933L14.5193 5.40653L14.5548 5.40059V0.10089H16.103Z" fill="white"/>
<path d="M25.0308 0.10089V7.87537H23.4825L20.3565 2.55786L20.321 2.5638V7.87537H18.7669V0.10089H20.321L23.4471 5.40653L23.4825 5.40059V0.10089H25.0308Z" fill="white"/>
<path d="M32.3748 7.87537L31.8489 6.19585H29.1306L28.6047 7.87537H27.0387L29.7038 0.10089H31.2934L33.9467 7.87537H32.3748ZM30.4779 1.91691L29.5147 4.97329H31.4707L30.5134 1.91691H30.4779Z" fill="white"/>
<path d="M43.0388 6.81899H43.0506C43.4682 6.81899 43.7892 6.73393 44.0138 6.5638C44.2423 6.38971 44.3565 6.1543 44.3565 5.85757C44.3565 5.55687 44.2521 5.31751 44.0433 5.13947C43.8385 4.95747 43.4682 4.78536 42.9324 4.62315C41.9593 4.34224 41.2482 4.0178 40.7991 3.64985C40.354 3.27794 40.1314 2.77943 40.1314 2.1543C40.1314 1.52522 40.4012 1.0089 40.941 0.605341C41.4807 0.20178 42.1721 0 43.0151 0C43.8621 0 44.5535 0.225519 45.0893 0.676558C45.6251 1.12364 45.8831 1.68546 45.8634 2.36202L45.8575 2.39169H44.3506C44.3506 2.02374 44.2285 1.73096 43.9842 1.51335C43.7439 1.29575 43.415 1.18694 42.9974 1.18694C42.5798 1.18694 42.2548 1.27794 42.0224 1.45994C41.7939 1.63798 41.6796 1.86746 41.6796 2.14837C41.6796 2.42532 41.7958 2.64886 42.0283 2.81899C42.2646 2.98516 42.6901 3.16518 43.3047 3.35905C44.1832 3.60435 44.8352 3.92483 45.2607 4.32047C45.6901 4.71217 45.9048 5.23046 45.9048 5.87537C45.9048 6.52028 45.6448 7.0366 45.1247 7.42433C44.6087 7.80811 43.9153 8 43.0447 8C42.4734 8 41.9514 7.90504 41.4787 7.71513C41.006 7.52127 40.6258 7.23244 40.3382 6.84866C40.0506 6.46489 39.9108 6.01978 39.9186 5.51335L39.9305 5.47774H41.4373C41.4373 6.37191 41.9711 6.81899 43.0388 6.81899Z" fill="white"/>
<path d="M52.8588 0.11276H54.413V5.27003C54.413 6.13254 54.1313 6.80317 53.5679 7.2819C53.0046 7.76063 52.2482 8 51.2988 8C50.3533 8 49.6008 7.76261 49.0414 7.28783C48.482 6.8091 48.2023 6.1365 48.2023 5.27003V0.11276H49.7624V5.27003C49.7624 5.77646 49.8943 6.15826 50.1583 6.41543C50.4262 6.6726 50.8083 6.80119 51.3047 6.80119C51.8011 6.80119 52.1832 6.67458 52.4511 6.42137C52.7229 6.16419 52.8588 5.78042 52.8588 5.27003V0.11276Z" fill="white"/>
<path d="M58.5306 1.2997V3.85163H60.0611C60.4866 3.85163 60.8135 3.73689 61.042 3.50742C61.2705 3.27794 61.3848 2.97132 61.3848 2.58754C61.3848 2.1998 61.2705 1.88922 61.042 1.65579C60.8135 1.4184 60.4866 1.2997 60.0611 1.2997H58.5306ZM60.0611 5.05638H58.5306V7.87537H56.9764V0.10089H60.0611C60.9475 0.10089 61.6467 0.326409 62.1589 0.777448C62.675 1.22453 62.933 1.82591 62.933 2.5816C62.933 3.33333 62.6769 3.93472 62.1648 4.38576C61.6527 4.83284 60.9514 5.05638 60.0611 5.05638Z" fill="white"/>
<path d="M66.8438 7.88131H65.2896V0.106825H68.2147C69.1011 0.106825 69.7925 0.308605 70.2889 0.712166C70.7853 1.11573 71.0335 1.67953 71.0335 2.40356C71.0335 3.1909 70.6218 3.76657 69.7984 4.13056C70.6572 4.38773 71.0866 5.00495 71.0866 5.9822V6.55786C71.0866 6.80712 71.1182 7.04451 71.1812 7.27003C71.2442 7.49159 71.3407 7.65579 71.4708 7.76261V7.87537H69.8693C69.6448 7.69337 69.5325 7.25025 69.5325 6.54599V5.99407C69.5325 5.60633 69.4261 5.30564 69.2134 5.09199C69.0046 4.87438 68.7072 4.76558 68.3211 4.76558L66.8438 4.77151V7.88131ZM66.8438 1.2997V3.56677H68.1852C69.0519 3.56677 69.4852 3.19881 69.4852 2.46291C69.4852 2.09891 69.3769 1.81405 69.1602 1.60831C68.9435 1.40257 68.6284 1.2997 68.2147 1.2997H66.8438Z" fill="white"/>
<path d="M78.3894 4.7003V3.28783C78.3894 2.67062 78.2377 2.17211 77.9343 1.79228C77.631 1.40851 77.2174 1.21662 76.6934 1.21662C76.1694 1.21662 75.7597 1.40653 75.4643 1.78635C75.1727 2.16222 75.027 2.66271 75.027 3.28783V4.7003C75.027 5.32938 75.1747 5.83581 75.4702 6.21958C75.7696 6.59941 76.1793 6.78932 76.6993 6.78932C77.2233 6.78932 77.6349 6.59941 77.9343 6.21958C78.2377 5.83581 78.3894 5.32938 78.3894 4.7003ZM79.9376 3.2997V4.7003C79.9376 5.66568 79.6362 6.45697 79.0335 7.07418C78.4347 7.69139 77.6546 8 76.6934 8C76.0631 8 75.5037 7.85955 75.0152 7.57864C74.5267 7.29377 74.1485 6.90208 73.8806 6.40356C73.6127 5.90109 73.4787 5.33333 73.4787 4.7003V3.2997C73.4787 2.33828 73.7762 1.54896 74.371 0.931751C74.9659 0.310584 75.74 0 76.6934 0C77.6507 0 78.4307 0.310584 79.0335 0.931751C79.6362 1.54896 79.9376 2.33828 79.9376 3.2997Z" fill="white"/>
<path d="M88.629 0.10089V7.87537H87.0808L83.9547 2.55786L83.9193 2.5638V7.87537H82.3651V0.10089H83.9193L87.0453 5.40653L87.0808 5.40059V0.10089H88.629Z" fill="white"/>
<path d="M96.0558 3.25223V4.45697H92.8471V6.67656H96.5995V7.87537H91.2929V0.10089H96.5876V1.2997H92.8471V3.25223H96.0558Z" fill="white"/>
<path d="M105.019 0.10089V7.87537H103.471L100.345 2.55786L100.309 2.5638V7.87537H98.7552V0.10089H100.309L103.435 5.40653L103.471 5.40059V0.10089H105.019Z" fill="white"/>
<path d="M109.237 4.62908V7.87537H107.683V0.10089H109.237V3.27596H109.917L111.967 0.10089H113.864L111.258 3.72107L114.071 7.87537H112.18L110.1 4.62908H109.237Z" fill="white"/>
<path d="M120.452 4.7003V3.28783C120.452 2.67062 120.3 2.17211 119.997 1.79228C119.693 1.40851 119.28 1.21662 118.756 1.21662C118.232 1.21662 117.822 1.40653 117.527 1.78635C117.235 2.16222 117.089 2.66271 117.089 3.28783V4.7003C117.089 5.32938 117.237 5.83581 117.533 6.21958C117.832 6.59941 118.242 6.78932 118.762 6.78932C119.286 6.78932 119.697 6.59941 119.997 6.21958C120.3 5.83581 120.452 5.32938 120.452 4.7003ZM122 3.2997V4.7003C122 5.66568 121.699 6.45697 121.096 7.07418C120.497 7.69139 119.717 8 118.756 8C118.125 8 117.566 7.85955 117.078 7.57864C116.589 7.29377 116.211 6.90208 115.943 6.40356C115.675 5.90109 115.541 5.33333 115.541 4.7003V3.2997C115.541 2.33828 115.839 1.54896 116.433 0.931751C117.028 0.310584 117.802 0 118.756 0C119.713 0 120.493 0.310584 121.096 0.931751C121.699 1.54896 122 2.33828 122 3.2997Z" fill="white"/>
</svg>
